#tb 0: 1/25
#media_type 0: video
#codec_id 0: rawvideo
#dimensions 0: 320x240
#sar 0: 1/1
0,          0,          0,        1,   307200, 0x73a3b71f
0,          1,          1,        1,   307200, 0x3f05f047
0,          2,          2,        1,   307200, 0x50382370
0,          3,          3,        1,   307200, 0x41a15136
0,          4,          4,        1,   307200, 0xbc8c78ee
0,          5,          5,        1,   307200, 0x19839e1b
0,          6,          6,        1,   307200, 0x8545b93b
0,          7,          7,        1,   307200, 0x4a4acf07
0,          8,          8,        1,   307200, 0xefa1dee4
0,          9,          9,        1,   307200, 0x22dae9ca
